<?xml version="1.0" encoding="UTF-8" standalone="no"?>
<!DOCTYPE svg PUBLIC "-//W3C//DTD SVG 1.1//EN" "http://www.w3.org/Graphics/SVG/1.1/DTD/svg11.dtd">
<svg width="100%" height="100%" viewBox="0 0 235 695" version="1.1" xmlns="http://www.w3.org/2000/svg" xmlns:xlink="http://www.w3.org/1999/xlink" xml:space="preserve" xmlns:serif="http://www.serif.com/" style="fill-rule:evenodd;clip-rule:evenodd;stroke-linejoin:round;stroke-miterlimit:2;">
    <g transform="matrix(1,0,0,1,2037.96,-368.809)">
        <path d="M-2019.95,575.604C-2019.95,575.604 -2037.61,686.156 -2037.96,785.819C-2038.3,882.887 -2015.74,1041.31 -2015.74,1041.31C-2015.74,1041.31 -1952.51,1063.81 -1919.93,1063.65C-1887.36,1063.5 -1820.27,1040.39 -1820.27,1040.39C-1820.27,1040.39 -1804.31,881.249 -1803.92,784.251C-1803.5,683.742 -1823.55,578.081 -1823.55,578.081C-1823.55,578.081 -1871.44,538.229 -1880.55,514.693C-1890.97,487.743 -1890.66,410.893 -1890.66,410.893C-1890.66,410.893 -1917.17,413.67 -1929.6,413.682C-1942.02,413.694 -1963.88,410.222 -1963.88,410.222C-1963.88,410.222 -1959.63,488.382 -1969.06,516.748C-1977.9,543.372 -2019.95,575.604 -2019.95,575.604Z" style="fill:rgb(191,198,221);"/>
        <path d="M-1934.95,551.068L-1995.59,1033.28C-1995.59,1033.28 -1975.5,1045.85 -1964.24,1048.63C-1952.49,1051.53 -1925.13,1050.69 -1925.13,1050.69L-1868.94,554.062C-1868.94,554.062 -1893.71,559.953 -1904.71,559.454C-1915.11,558.983 -1934.95,551.068 -1934.95,551.068Z" style="fill:rgb(231,231,231);"/>
        <path d="M-1971.2,374.401L-1963.8,410.236C-1963.8,410.236 -1939.54,416.1 -1928.38,416.003C-1916.69,415.9 -1890.5,411.395 -1890.5,411.395L-1888.28,372.087C-1888.28,372.087 -1916.81,368.742 -1929.88,368.81C-1942.98,368.878 -1971.2,374.401 -1971.2,374.401Z" style="fill:rgb(162,123,91);"/>
    </g>
</svg>
